# xmcd
#
# Track frame offsets:
#	150
#	11813
#	23179
#
# Disc length: 462 seconds
#
# Revision: 0
# Processed by: cddbd v1.5.2PL0 Copyright (c) Steve Scherf et al.
# Submitted via: audiograbber 1.83.01
#
DISCID=1b01cc03
DTITLE=Cowpoke - How Would John
DYEAR=1904
DGENRE=Country
TTITLE0=How Would John (Harry R)
TTITLE1=How Would John (Little Johnny Mix)
TTITLE2=How Would John (Panel Mix)
EXTD=
EXTT0=
EXTT1=
EXTT2=
PLAYORDER=
